<svg width="155.808" height="23.52" viewBox="0 0 155.808 23.52" xmlns="http://www.w3.org/2000/svg"><g id="svgGroup" stroke-linecap="round" fill-rule="evenodd" font-size="9pt" stroke="#000000" stroke-width="0.15mm" fill="#ffffff" style="stroke:#000000;stroke-width:0.15mm;fill:#ffffff"><path d="M 53.504 23.328 L 52.544 23.328 Q 51.136 20.128 49.696 16.944 Q 48.256 13.76 46.88 10.496 Q 46.432 9.472 46 8.432 Q 45.568 7.392 45.168 6.336 Q 44.768 5.28 44.352 4.224 Q 44.352 4.576 44.336 4.928 Q 44.32 5.28 44.32 5.632 A 1060.798 1060.798 0 0 1 44.294 6.561 Q 44.282 6.976 44.268 7.435 A 2054.486 2054.486 0 0 1 44.24 8.4 Q 44.192 10.016 44.128 11.856 Q 44.064 13.696 44.032 15.536 Q 44 17.376 43.968 19.008 Q 43.936 19.712 43.92 20.416 Q 43.904 21.12 43.84 21.728 Q 44.448 21.696 45.04 21.664 Q 45.632 21.632 46.24 21.6 L 46.24 23.008 L 40.128 23.008 L 40.128 21.952 A 4.097 4.097 0 0 0 40.644 21.905 Q 41.251 21.807 41.584 21.52 A 1.75 1.75 0 0 0 42.119 20.681 A 2.275 2.275 0 0 0 42.176 20.448 A 9.371 9.371 0 0 0 42.306 19.484 A 11.176 11.176 0 0 0 42.336 19.008 L 42.944 4.416 Q 42.976 3.776 42.992 3.136 Q 43.008 2.496 43.04 1.888 Q 42.464 1.92 41.888 1.936 Q 41.312 1.952 40.736 1.984 L 40.736 0.608 L 45.632 0.608 L 51.136 13.312 Q 51.552 14.272 51.952 15.232 Q 52.352 16.192 52.784 17.152 Q 53.216 18.112 53.632 19.104 L 53.696 19.104 Q 54.048 18.24 54.528 17.04 Q 55.008 15.84 55.328 14.976 Q 56.736 11.456 58.256 7.92 Q 59.776 4.384 61.248 0.608 L 65.984 0.608 L 65.984 1.664 Q 65.247 1.635 64.754 1.918 A 1.625 1.625 0 0 0 64.672 1.968 A 1.577 1.577 0 0 0 64.193 2.474 Q 64.036 2.73 63.936 3.072 A 3.793 3.793 0 0 0 63.83 3.566 Q 63.742 4.145 63.767 4.937 A 12.526 12.526 0 0 0 63.776 5.152 L 64.608 19.712 Q 64.672 20.256 64.672 20.768 L 64.672 21.696 Q 65.248 21.664 65.84 21.648 Q 66.432 21.632 67.008 21.6 L 67.008 23.008 L 59.84 23.008 L 59.84 21.952 A 3.639 3.639 0 0 0 60.384 21.896 Q 60.975 21.787 61.312 21.472 Q 61.792 21.024 61.904 20.192 A 7.569 7.569 0 0 0 61.956 19.643 Q 61.986 19.158 61.969 18.573 A 17.435 17.435 0 0 0 61.952 18.144 L 61.312 7.584 L 61.248 6.56 L 61.184 5.536 L 61.12 4.512 Q 61.024 4.736 60.912 4.992 Q 60.8 5.248 60.704 5.536 L 53.504 23.328 Z M 97.088 23.008 L 89.888 23.008 L 89.888 21.952 Q 90.901 21.899 91.381 21.546 A 1.138 1.138 0 0 0 91.552 21.392 A 1.787 1.787 0 0 0 91.919 20.746 Q 92.026 20.422 92.048 20.016 A 30.577 30.577 0 0 0 92.082 19.138 Q 92.094 18.677 92.096 18.164 A 51.175 51.175 0 0 0 92.096 18.016 L 92.096 4.192 Q 92.096 3.552 92.128 2.96 Q 92.16 2.368 92.192 1.888 L 91.04 1.952 L 89.888 2.016 L 89.888 0.608 L 97.088 0.608 L 97.088 1.664 A 4.41 4.41 0 0 0 96.511 1.715 Q 95.781 1.832 95.44 2.208 A 1.883 1.883 0 0 0 95.032 2.951 Q 94.947 3.24 94.928 3.584 A 28.035 28.035 0 0 0 94.899 4.273 Q 94.889 4.576 94.885 4.908 A 49.049 49.049 0 0 0 94.88 5.6 L 94.88 10.912 L 106.336 10.912 L 106.336 4.192 Q 106.336 3.552 106.368 2.96 Q 106.4 2.368 106.432 1.888 L 105.28 1.952 L 104.128 2.016 L 104.128 0.608 L 111.328 0.608 L 111.328 1.664 A 4.41 4.41 0 0 0 110.751 1.715 Q 110.021 1.832 109.68 2.208 A 1.883 1.883 0 0 0 109.272 2.951 Q 109.187 3.24 109.168 3.584 A 28.033 28.033 0 0 0 109.139 4.273 Q 109.129 4.576 109.125 4.908 A 49.049 49.049 0 0 0 109.12 5.6 L 109.12 19.2 A 79.427 79.427 0 0 1 109.118 19.814 Q 109.116 20.056 109.112 20.275 A 41.873 41.873 0 0 1 109.104 20.688 A 12.103 12.103 0 0 1 109.086 21.118 Q 109.065 21.465 109.024 21.728 L 110.176 21.664 L 111.328 21.6 L 111.328 23.008 L 104.128 23.008 L 104.128 21.952 Q 105.141 21.899 105.621 21.546 A 1.138 1.138 0 0 0 105.792 21.392 A 1.787 1.787 0 0 0 106.159 20.746 Q 106.266 20.422 106.288 20.016 A 30.577 30.577 0 0 0 106.322 19.138 Q 106.334 18.677 106.336 18.164 A 51.175 51.175 0 0 0 106.336 18.016 L 106.336 12.192 L 94.88 12.32 L 94.88 19.2 A 79.427 79.427 0 0 1 94.878 19.814 Q 94.876 20.056 94.872 20.275 A 41.873 41.873 0 0 1 94.864 20.688 A 12.103 12.103 0 0 1 94.846 21.118 Q 94.825 21.465 94.784 21.728 L 95.936 21.664 L 97.088 21.6 L 97.088 23.008 Z M 121.248 0.608 L 121.248 1.664 Q 120.227 1.664 119.759 2.083 A 1.145 1.145 0 0 0 119.728 2.112 A 1.949 1.949 0 0 0 119.326 2.653 A 1.761 1.761 0 0 0 119.168 3.152 A 8.458 8.458 0 0 0 119.104 3.626 Q 119.08 3.854 119.074 4.055 A 4.491 4.491 0 0 0 119.072 4.192 L 119.072 12.256 Q 119.072 14.048 119.312 15.728 A 10.612 10.612 0 0 0 119.749 17.605 A 8.864 8.864 0 0 0 120.224 18.752 Q 120.896 20.096 122.224 20.896 Q 123.324 21.558 124.983 21.672 A 10.418 10.418 0 0 0 125.696 21.696 Q 127.753 21.696 129.133 20.829 A 4.817 4.817 0 0 0 129.456 20.608 A 6.037 6.037 0 0 0 131.276 18.373 A 7.67 7.67 0 0 0 131.6 17.6 A 11.787 11.787 0 0 0 132.146 15.397 A 16.053 16.053 0 0 0 132.32 13.184 L 132.416 4.192 Q 132.416 3.552 132.448 2.96 Q 132.48 2.368 132.512 1.888 Q 131.936 1.92 131.376 1.952 Q 130.816 1.984 130.24 2.016 L 130.24 0.608 L 136.192 0.608 L 136.192 1.664 Q 135.168 1.691 134.689 2.058 A 1.108 1.108 0 0 0 134.528 2.208 A 1.896 1.896 0 0 0 134.144 2.917 Q 134.064 3.182 134.038 3.494 A 3.469 3.469 0 0 0 134.032 3.584 A 56.117 56.117 0 0 0 133.998 4.273 Q 133.985 4.576 133.974 4.908 A 98.239 98.239 0 0 0 133.952 5.6 L 133.888 13.024 A 17.412 17.412 0 0 1 133.569 16.397 A 15.85 15.85 0 0 1 133.44 16.992 A 10.341 10.341 0 0 1 132.533 19.441 A 9.247 9.247 0 0 1 131.984 20.352 Q 130.976 21.824 129.328 22.672 Q 127.835 23.441 125.723 23.513 A 13.001 13.001 0 0 1 125.28 23.52 Q 123.204 23.52 121.664 23.078 A 8.232 8.232 0 0 1 120.976 22.848 A 6.352 6.352 0 0 1 119.03 21.685 A 5.898 5.898 0 0 1 118.192 20.768 Q 117.182 19.401 116.731 17.341 A 12.989 12.989 0 0 1 116.704 17.216 A 19.366 19.366 0 0 1 116.406 15.259 Q 116.303 14.267 116.271 13.144 A 36.625 36.625 0 0 1 116.256 12.096 L 116.256 5.6 A 35.156 35.156 0 0 1 116.263 4.933 Q 116.268 4.638 116.279 4.312 A 64.69 64.69 0 0 1 116.304 3.632 Q 116.341 2.762 116.368 2.202 A 83.997 83.997 0 0 1 116.384 1.888 Q 115.808 1.92 115.232 1.936 Q 114.656 1.952 114.08 1.984 L 114.08 0.608 L 121.248 0.608 Z M 5.984 23.008 L 0 23.008 L 0 21.952 Q 0.96 21.952 1.472 21.44 A 3.121 3.121 0 0 0 1.913 20.876 Q 2.084 20.6 2.228 20.263 A 5.745 5.745 0 0 0 2.32 20.032 A 599.431 599.431 0 0 1 2.635 19.193 Q 2.798 18.762 2.98 18.279 A 1074.68 1074.68 0 0 1 3.104 17.952 L 9.696 0 L 10.464 0 L 17.6 18.208 Q 17.856 18.88 18.176 19.936 Q 18.494 20.986 18.433 21.72 A 2.678 2.678 0 0 1 18.432 21.728 L 19.52 21.664 L 20.608 21.6 L 20.608 23.008 L 13.28 23.008 L 13.28 21.952 A 4.586 4.586 0 0 0 13.82 21.908 Q 14.38 21.827 14.686 21.599 A 0.944 0.944 0 0 0 14.88 21.408 Q 15.264 20.896 15.168 20.192 Q 15.072 19.488 14.848 18.912 L 13.728 15.904 L 5.408 16.096 L 4.288 19.52 A 24.202 24.202 0 0 1 4.153 19.969 Q 4.019 20.398 3.904 20.694 A 6.692 6.692 0 0 1 3.888 20.736 Q 3.712 21.184 3.488 21.728 Q 4.128 21.696 4.752 21.664 Q 5.376 21.632 5.984 21.6 L 5.984 23.008 Z M 73.888 23.008 L 67.904 23.008 L 67.904 21.952 Q 68.864 21.952 69.376 21.44 A 3.121 3.121 0 0 0 69.817 20.876 Q 69.988 20.6 70.132 20.263 A 5.745 5.745 0 0 0 70.224 20.032 A 599.431 599.431 0 0 1 70.539 19.193 Q 70.702 18.762 70.884 18.279 A 1074.68 1074.68 0 0 1 71.008 17.952 L 77.6 0 L 78.368 0 L 85.504 18.208 Q 85.76 18.88 86.08 19.936 Q 86.398 20.986 86.337 21.72 A 2.678 2.678 0 0 1 86.336 21.728 L 87.424 21.664 L 88.512 21.6 L 88.512 23.008 L 81.184 23.008 L 81.184 21.952 A 4.586 4.586 0 0 0 81.724 21.908 Q 82.284 21.827 82.59 21.599 A 0.944 0.944 0 0 0 82.784 21.408 Q 83.168 20.896 83.072 20.192 Q 82.976 19.488 82.752 18.912 L 81.632 15.904 L 73.312 16.096 L 72.192 19.52 A 24.202 24.202 0 0 1 72.057 19.969 Q 71.923 20.398 71.808 20.694 A 6.692 6.692 0 0 1 71.792 20.736 Q 71.616 21.184 71.392 21.728 Q 72.032 21.696 72.656 21.664 Q 73.28 21.632 73.888 21.6 L 73.888 23.008 Z M 37.856 23.008 L 21.984 23.008 L 21.984 21.952 Q 22.997 21.899 23.477 21.546 A 1.138 1.138 0 0 0 23.648 21.392 A 1.787 1.787 0 0 0 24.015 20.746 Q 24.122 20.422 24.144 20.016 A 30.577 30.577 0 0 0 24.178 19.138 Q 24.19 18.677 24.192 18.164 A 51.175 51.175 0 0 0 24.192 18.016 L 24.192 4.192 Q 24.192 3.552 24.224 2.96 Q 24.256 2.368 24.288 1.888 L 23.136 1.952 L 21.984 2.016 L 21.984 0.608 L 29.184 0.608 L 29.184 1.664 A 4.41 4.41 0 0 0 28.607 1.715 Q 27.877 1.832 27.536 2.208 A 1.883 1.883 0 0 0 27.128 2.951 Q 27.043 3.24 27.024 3.584 A 28.035 28.035 0 0 0 26.995 4.273 Q 26.985 4.576 26.981 4.908 A 49.049 49.049 0 0 0 26.976 5.6 L 26.976 19.328 A 78.549 78.549 0 0 1 26.974 19.94 Q 26.972 20.18 26.968 20.395 A 39.356 39.356 0 0 1 26.96 20.8 A 11.627 11.627 0 0 1 26.941 21.229 Q 26.92 21.564 26.88 21.824 L 32.864 21.728 A 5.281 5.281 0 0 0 34.082 21.576 A 3.416 3.416 0 0 0 35.92 20.448 A 3.69 3.69 0 0 0 36.533 19.348 Q 36.917 18.304 36.956 16.738 A 14.451 14.451 0 0 0 36.96 16.384 L 38.048 16.384 L 37.856 23.008 Z M 148.256 23.008 L 138.912 23.008 L 138.912 21.952 Q 140.128 21.92 140.576 21.392 A 1.939 1.939 0 0 0 140.939 20.723 Q 141.025 20.455 141.058 20.135 A 3.741 3.741 0 0 0 141.072 19.952 A 32.311 32.311 0 0 0 141.105 19.102 Q 141.116 18.667 141.119 18.184 A 55.624 55.624 0 0 0 141.12 17.856 L 141.12 4.416 Q 141.12 3.552 141.152 2.928 Q 141.184 2.304 141.216 1.888 L 140.064 1.952 L 138.912 2.016 L 138.912 0.608 Q 140.672 0.576 142.448 0.56 Q 144.224 0.544 146.144 0.544 Q 148.58 0.544 150.32 1.109 A 7.327 7.327 0 0 1 151.952 1.856 A 4.152 4.152 0 0 1 153.914 4.88 Q 153.986 5.339 153.986 5.849 A 7.452 7.452 0 0 1 153.984 6.016 A 3.787 3.787 0 0 1 153.704 7.424 A 4.884 4.884 0 0 1 153.392 8.064 A 5.021 5.021 0 0 1 152.442 9.237 A 6.648 6.648 0 0 1 151.632 9.872 Q 150.464 10.656 148.704 10.976 L 148.704 11.04 A 12.252 12.252 0 0 1 150.689 11.19 Q 151.746 11.364 152.587 11.739 A 5.397 5.397 0 0 1 154.016 12.656 Q 155.808 14.272 155.808 16.736 A 6.427 6.427 0 0 1 155.579 18.486 A 5.244 5.244 0 0 1 154.816 20.096 A 6.276 6.276 0 0 1 152.44 22.109 A 7.564 7.564 0 0 1 152.128 22.256 A 8.649 8.649 0 0 1 149.82 22.902 A 11.18 11.18 0 0 1 148.256 23.008 Z M 143.904 12 L 143.904 19.232 A 78.549 78.549 0 0 1 143.902 19.844 Q 143.9 20.084 143.896 20.299 A 39.356 39.356 0 0 1 143.888 20.704 A 11.627 11.627 0 0 1 143.869 21.133 Q 143.848 21.468 143.808 21.728 Q 144.16 21.75 144.61 21.764 A 43.796 43.796 0 0 0 145.04 21.776 Q 145.76 21.792 146.384 21.792 L 147.2 21.792 Q 149.446 21.792 150.908 20.768 A 4.931 4.931 0 0 0 151.184 20.56 A 3.97 3.97 0 0 0 152.57 18.25 A 6.157 6.157 0 0 0 152.704 16.928 Q 152.704 15.616 152.357 14.694 A 3.573 3.573 0 0 0 151.936 13.888 Q 151.168 12.8 149.92 12.352 Q 148.672 11.904 147.2 11.904 Q 146.24 11.904 145.456 11.92 Q 144.672 11.936 143.904 12 Z M 8.16 8.288 L 5.888 14.72 L 13.28 14.72 L 11.008 8.608 Q 10.656 7.616 10.288 6.64 Q 9.92 5.664 9.568 4.672 L 9.504 4.672 Q 9.184 5.568 8.848 6.464 Q 8.512 7.36 8.16 8.288 Z M 76.064 8.288 L 73.792 14.72 L 81.184 14.72 L 78.912 8.608 Q 78.56 7.616 78.192 6.64 Q 77.824 5.664 77.472 4.672 L 77.408 4.672 Q 77.088 5.568 76.752 6.464 Q 76.416 7.36 76.064 8.288 Z M 143.904 4.8 L 143.904 10.752 L 146.24 10.688 A 7.7 7.7 0 0 0 147.379 10.589 Q 147.964 10.491 148.442 10.296 A 3.62 3.62 0 0 0 149.12 9.936 A 4.369 4.369 0 0 0 150.165 8.951 A 3.942 3.942 0 0 0 150.64 8.128 A 5.35 5.35 0 0 0 151.074 6.008 A 5.64 5.64 0 0 0 151.072 5.856 A 6.504 6.504 0 0 0 150.982 4.859 Q 150.894 4.354 150.72 3.947 A 2.831 2.831 0 0 0 150.288 3.232 Q 149.536 2.336 148.448 2.016 A 7.723 7.723 0 0 0 146.701 1.707 A 7.039 7.039 0 0 0 146.304 1.696 A 6.19 6.19 0 0 0 145.753 1.719 Q 145.206 1.768 144.859 1.922 A 1.471 1.471 0 0 0 144.736 1.984 Q 144.224 2.272 144.064 2.944 Q 143.919 3.551 143.905 4.576 A 16.446 16.446 0 0 0 143.904 4.8 Z" vector-effect="non-scaling-stroke"/></g></svg>