<svg width="502.701" height="73.4" viewBox="0 0 502.701 73.4" xmlns="http://www.w3.org/2000/svg"><g id="svgGroup" stroke-linecap="round" fill-rule="evenodd" font-size="9pt" stroke="#000" stroke-width="0.25mm" fill="#ffffff" style="stroke:#000;stroke-width:0.25mm;fill:#ffffff"><path d="M 173.6 72.8 L 166.4 72.8 Q 162.7 63.9 158.95 55.15 Q 155.2 46.4 151.5 37.5 Q 150.813 35.919 149.983 33.818 A 202.418 202.418 0 0 1 149.2 31.8 Q 147.9 28.4 146.6 24.3 Q 145.3 20.2 144.1 15.9 A 236.916 236.916 0 0 1 144.291 20.849 A 198.497 198.497 0 0 1 144.35 23.65 A 175.636 175.636 0 0 1 144.367 26.056 A 158.036 158.036 0 0 1 144.3 30.7 Q 144.3 33.4 144.25 36.6 A 473.996 473.996 0 0 1 144.124 42.353 A 518.97 518.97 0 0 1 144.1 43.2 Q 144 46.6 143.95 50.05 Q 143.9 53.5 143.9 56.7 Q 143.8 59.2 143.7 61.6 A 70.11 70.11 0 0 1 143.628 63.012 Q 143.538 64.463 143.401 65.492 A 19.725 19.725 0 0 1 143.4 65.5 A 310.222 310.222 0 0 1 145.249 65.403 Q 146.225 65.355 147.305 65.306 A 502.604 502.604 0 0 1 147.45 65.3 A 149.193 149.193 0 0 1 148.516 65.256 Q 149.553 65.218 150.338 65.205 A 43.186 43.186 0 0 1 151 65.2 L 151 71.8 L 129.4 71.8 L 129.4 66.3 A 15.901 15.901 0 0 0 130.988 66.164 Q 132.492 65.954 133.5 65.45 Q 135 64.7 135.7 62.8 Q 136.332 61.084 136.393 58.062 A 32.732 32.732 0 0 0 136.4 57.4 L 137.5 16.7 Q 137.6 14.2 137.65 11.9 Q 137.698 9.715 137.79 8.251 A 45.597 45.597 0 0 1 137.8 8.1 A 71.972 71.972 0 0 1 136.516 8.168 Q 135.945 8.193 135.316 8.214 A 133.571 133.571 0 0 1 134 8.25 Q 132.032 8.295 130.704 8.379 A 40.267 40.267 0 0 0 130.4 8.4 L 130.4 1.8 L 150.3 1.8 L 166.1 40.8 Q 167.1 43.4 168.25 46.4 Q 169.4 49.4 170.5 52.3 A 517.829 517.829 0 0 1 171.283 54.377 Q 171.9 56.025 172.4 57.4 L 172.5 57.4 A 138.615 138.615 0 0 0 174.925 50.965 A 150.815 150.815 0 0 0 175 50.75 A 161.515 161.515 0 0 1 176.5 46.613 A 134.247 134.247 0 0 1 177.4 44.3 Q 181.4 33.7 185.55 23.15 Q 189.7 12.6 193.9 1.8 L 214.2 1.8 L 214.2 7.3 Q 211.9 7.3 210.25 8 A 4.274 4.274 0 0 0 208.285 9.702 A 6.065 6.065 0 0 0 207.8 10.65 Q 207.022 12.546 207.095 16.474 A 38.836 38.836 0 0 0 207.1 16.7 L 209 57.4 A 32.246 32.246 0 0 1 209.114 60.078 A 28.259 28.259 0 0 1 209.05 62 Q 208.9 64.2 208.8 65.5 A 33.44 33.44 0 0 1 210.393 65.354 Q 211.484 65.278 212.75 65.25 Q 215 65.2 216.3 65.2 L 216.3 71.8 L 190.3 71.8 L 190.3 66.3 Q 192.207 66.224 193.59 65.74 A 6.901 6.901 0 0 0 194.4 65.4 A 4.254 4.254 0 0 0 196.175 63.709 A 6.219 6.219 0 0 0 196.7 62.55 Q 197.322 60.728 197.233 57.365 A 36.798 36.798 0 0 0 197.2 56.5 L 196 31.4 Q 196 30.1 195.8 27.6 Q 195.6 25.1 195.5 22.2 Q 195.4 19.3 195.3 16.7 Q 195 17.4 194.65 18.1 Q 194.3 18.8 194.1 19.5 L 173.6 72.8 Z M 317.4 71.8 L 290.8 71.8 L 290.8 66.3 A 15.905 15.905 0 0 0 292.404 66.167 Q 294.035 65.941 295.065 65.369 A 4.633 4.633 0 0 0 295.1 65.35 Q 296.6 64.5 297.2 62.35 Q 297.742 60.408 297.794 57.119 A 45.164 45.164 0 0 0 297.8 56.4 L 297.8 16.5 Q 297.8 14 297.95 11.7 Q 298.065 9.939 298.15 8.764 A 163.708 163.708 0 0 1 298.2 8.1 A 87.998 87.998 0 0 1 296.617 8.178 Q 295.807 8.211 294.909 8.235 A 150.431 150.431 0 0 1 294.3 8.25 Q 292.1 8.3 290.8 8.4 L 290.8 1.8 L 317.4 1.8 L 317.4 7.3 A 14.971 14.971 0 0 0 315.752 7.446 Q 314.947 7.566 314.281 7.776 A 6.253 6.253 0 0 0 313.15 8.25 A 4.1 4.1 0 0 0 311.525 9.904 A 6.142 6.142 0 0 0 311 11.2 A 12.31 12.31 0 0 0 310.684 12.688 Q 310.4 14.519 310.4 17.2 L 310.4 33.1 L 340.6 33.1 L 340.6 16.5 Q 340.6 14 340.7 11.7 Q 340.8 9.4 341 8.1 A 87.998 87.998 0 0 1 339.417 8.178 Q 338.607 8.211 337.709 8.235 A 150.431 150.431 0 0 1 337.1 8.25 Q 334.9 8.3 333.6 8.4 L 333.6 1.8 L 360.2 1.8 L 360.2 7.3 A 14.971 14.971 0 0 0 358.552 7.446 Q 357.747 7.566 357.081 7.776 A 6.253 6.253 0 0 0 355.95 8.25 A 4.1 4.1 0 0 0 354.325 9.904 A 6.142 6.142 0 0 0 353.8 11.2 A 12.31 12.31 0 0 0 353.484 12.688 Q 353.2 14.519 353.2 17.2 L 353.2 56.9 Q 353.2 59.6 353.1 61.9 A 62.56 62.56 0 0 1 353.044 62.988 Q 352.95 64.525 352.8 65.5 Q 354.261 65.414 356.128 65.328 A 394.233 394.233 0 0 1 356.75 65.3 A 158.774 158.774 0 0 1 357.809 65.256 Q 358.834 65.218 359.58 65.205 A 38.52 38.52 0 0 1 360.2 65.2 L 360.2 71.8 L 333.6 71.8 L 333.6 66.3 A 15.905 15.905 0 0 0 335.204 66.167 Q 336.835 65.941 337.865 65.369 A 4.633 4.633 0 0 0 337.9 65.35 Q 339.4 64.5 340 62.35 Q 340.542 60.408 340.594 57.119 A 45.164 45.164 0 0 0 340.6 56.4 L 340.6 39.5 L 310.4 39.9 L 310.4 56.9 Q 310.4 59.6 310.3 61.9 Q 310.2 64.2 310 65.5 Q 311.461 65.414 313.291 65.328 A 406.926 406.926 0 0 1 313.9 65.3 A 140.207 140.207 0 0 1 314.944 65.256 Q 315.962 65.218 316.741 65.205 A 42.656 42.656 0 0 1 317.4 65.2 L 317.4 71.8 Z M 394.8 1.8 L 394.8 7.3 Q 392.2 7.4 390.65 8.2 A 4.47 4.47 0 0 0 388.535 10.535 A 5.768 5.768 0 0 0 388.45 10.75 Q 387.846 12.376 387.803 15.254 A 30.014 30.014 0 0 0 387.8 15.7 L 387.8 42.5 A 52.888 52.888 0 0 0 388.012 47.37 Q 388.237 49.794 388.699 51.898 A 29.47 29.47 0 0 0 388.95 52.95 A 25.965 25.965 0 0 0 390.208 56.685 Q 391.097 58.759 392.3 60.4 Q 394.5 63.4 397.75 64.9 Q 401 66.4 405.3 66.4 A 24.578 24.578 0 0 0 406.119 66.414 Q 408.553 66.414 410.67 65.915 A 14.986 14.986 0 0 0 415.45 63.9 A 15.66 15.66 0 0 0 420.603 58.3 A 20.214 20.214 0 0 0 421.7 56 A 26.753 26.753 0 0 0 423.172 50.815 Q 423.642 48.262 423.76 45.323 A 50.276 50.276 0 0 0 423.8 43.3 L 423.9 16.5 A 114.106 114.106 0 0 1 423.956 12.862 A 100.759 100.759 0 0 1 424 11.7 A 62.56 62.56 0 0 1 424.056 10.613 Q 424.15 9.075 424.3 8.1 A 87.998 87.998 0 0 1 422.717 8.178 Q 421.907 8.211 421.009 8.235 A 150.431 150.431 0 0 1 420.4 8.25 Q 418.2 8.3 416.9 8.4 L 416.9 1.8 L 438.5 1.8 L 438.5 7.3 A 14.971 14.971 0 0 0 436.852 7.446 Q 436.047 7.566 435.381 7.776 A 6.253 6.253 0 0 0 434.25 8.25 A 4.1 4.1 0 0 0 432.625 9.904 A 6.142 6.142 0 0 0 432.1 11.2 A 12.31 12.31 0 0 0 431.784 12.688 Q 431.5 14.519 431.5 17.2 L 431.4 41.6 Q 431.4 48.91 429.816 54.55 A 33.904 33.904 0 0 1 429.55 55.45 A 29.496 29.496 0 0 1 427.134 61.145 A 23.585 23.585 0 0 1 424.1 65.4 Q 420.5 69.4 415.4 71.4 A 28.459 28.459 0 0 1 408.85 73.07 A 37.208 37.208 0 0 1 403.8 73.4 A 49.641 49.641 0 0 1 397.962 73.077 Q 394.989 72.724 392.477 71.987 A 24.939 24.939 0 0 1 389.95 71.1 A 22.167 22.167 0 0 1 384.467 67.891 A 19.116 19.116 0 0 1 381.15 64.45 A 25.66 25.66 0 0 1 377.401 57.198 A 31.415 31.415 0 0 1 376.55 54.15 A 52.805 52.805 0 0 1 375.497 47.419 A 70.668 70.668 0 0 1 375.2 40.8 L 375.2 17.9 Q 375.2 15.3 375.35 12.45 Q 375.5 9.6 375.6 8.1 A 87.998 87.998 0 0 1 374.017 8.178 Q 373.207 8.211 372.309 8.235 A 150.431 150.431 0 0 1 371.7 8.25 Q 369.5 8.3 368.2 8.4 L 368.2 1.8 L 394.8 1.8 Z M 122.5 71.8 L 70.5 71.8 L 70.5 66.3 A 15.905 15.905 0 0 0 72.104 66.167 Q 73.735 65.941 74.765 65.369 A 4.633 4.633 0 0 0 74.8 65.35 Q 76.3 64.5 76.9 62.35 Q 77.442 60.408 77.494 57.119 A 45.164 45.164 0 0 0 77.5 56.4 L 77.5 16.5 Q 77.5 14 77.65 11.7 Q 77.765 9.939 77.85 8.764 A 163.708 163.708 0 0 1 77.9 8.1 A 87.998 87.998 0 0 1 76.317 8.178 Q 75.507 8.211 74.609 8.235 A 150.431 150.431 0 0 1 74 8.25 Q 71.8 8.3 70.5 8.4 L 70.5 1.8 L 97.1 1.8 L 97.1 7.3 A 14.971 14.971 0 0 0 95.452 7.446 Q 94.647 7.566 93.981 7.776 A 6.253 6.253 0 0 0 92.85 8.25 A 4.1 4.1 0 0 0 91.225 9.904 A 6.142 6.142 0 0 0 90.7 11.2 A 12.31 12.31 0 0 0 90.384 12.688 Q 90.1 14.519 90.1 17.2 L 90.1 57 Q 90.1 59.7 90 61.95 Q 89.9 64.2 89.7 65.5 L 104.9 65.4 A 14.22 14.22 0 0 0 108.864 64.877 A 10.491 10.491 0 0 0 114.2 61.35 A 12.564 12.564 0 0 0 116.275 57.522 Q 117.5 54.019 117.5 48.9 L 123.1 48.9 L 122.5 71.8 Z M 20.5 71.8 L 0 71.8 L 0 66.1 A 7.969 7.969 0 0 0 1.945 65.875 A 5.675 5.675 0 0 0 4.5 64.5 A 10.554 10.554 0 0 0 6.201 62.402 A 14.562 14.562 0 0 0 7.3 60.25 Q 8.4 57.6 9.6 54.3 L 29.5 0 L 34.9 0 L 56.6 55.3 Q 57.2 57 58.2 60.1 A 28.918 28.918 0 0 1 58.823 62.312 Q 59.082 63.406 59.204 64.378 A 13.937 13.937 0 0 1 59.3 65.5 A 908.321 908.321 0 0 0 62.4 65.313 A 828.451 828.451 0 0 0 62.6 65.3 A 59.327 59.327 0 0 1 63.744 65.239 Q 64.65 65.2 65.4 65.2 L 65.4 71.8 L 39.9 71.8 L 39.9 66.3 Q 43 66.3 44.1 65 Q 45.196 63.705 45.051 61.616 A 7.422 7.422 0 0 0 45.05 61.6 Q 44.9 59.5 44 57.3 L 41.5 50.5 L 18.3 50.9 L 16.1 57.6 A 201.372 201.372 0 0 1 15.494 59.293 Q 15.171 60.181 14.805 61.166 A 337.507 337.507 0 0 1 14.7 61.45 Q 13.9 63.6 13.1 65.3 Q 14.9 65.2 17.05 65.1 A 131.611 131.611 0 0 1 18.072 65.056 Q 19.321 65.008 20.216 65.001 A 37.407 37.407 0 0 1 20.5 65 L 20.5 71.8 Z M 240.8 71.8 L 220.3 71.8 L 220.3 66.1 A 7.969 7.969 0 0 0 222.245 65.875 A 5.675 5.675 0 0 0 224.8 64.5 A 10.554 10.554 0 0 0 226.501 62.402 A 14.562 14.562 0 0 0 227.6 60.25 Q 228.7 57.6 229.9 54.3 L 249.8 0 L 255.2 0 L 276.9 55.3 Q 277.5 57 278.5 60.1 A 28.918 28.918 0 0 1 279.123 62.312 Q 279.382 63.406 279.504 64.378 A 13.937 13.937 0 0 1 279.6 65.5 A 908.321 908.321 0 0 0 282.7 65.313 A 828.451 828.451 0 0 0 282.9 65.3 A 59.327 59.327 0 0 1 284.044 65.239 Q 284.95 65.2 285.7 65.2 L 285.7 71.8 L 260.2 71.8 L 260.2 66.3 Q 263.3 66.3 264.4 65 Q 265.496 63.705 265.351 61.616 A 7.422 7.422 0 0 0 265.35 61.6 Q 265.2 59.5 264.3 57.3 L 261.8 50.5 L 238.6 50.9 L 236.4 57.6 A 201.372 201.372 0 0 1 235.794 59.293 Q 235.471 60.181 235.105 61.166 A 337.507 337.507 0 0 1 235 61.45 Q 234.2 63.6 233.4 65.3 Q 235.2 65.2 237.35 65.1 A 131.611 131.611 0 0 1 238.372 65.056 Q 239.621 65.008 240.516 65.001 A 37.407 37.407 0 0 1 240.8 65 L 240.8 71.8 Z M 478.7 71.8 L 446.3 71.8 L 446.3 66.3 A 14.957 14.957 0 0 0 447.914 66.161 Q 448.688 66.048 449.327 65.852 A 5.748 5.748 0 0 0 450.6 65.3 A 4.21 4.21 0 0 0 452.079 63.765 Q 452.413 63.189 452.638 62.461 A 8.023 8.023 0 0 0 452.7 62.25 A 12.949 12.949 0 0 0 453.016 60.735 Q 453.3 58.881 453.3 56.2 L 453.3 16.7 Q 453.3 14 453.45 11.7 Q 453.565 9.939 453.65 8.764 A 163.708 163.708 0 0 1 453.7 8.1 A 87.998 87.998 0 0 1 452.117 8.178 Q 451.307 8.211 450.409 8.235 A 150.431 150.431 0 0 1 449.8 8.25 Q 447.6 8.3 446.3 8.4 L 446.3 1.8 Q 452.7 1.7 459.2 1.7 Q 465.7 1.7 472.3 1.6 A 61.608 61.608 0 0 1 472.822 1.598 Q 481.07 1.598 486.879 3.837 A 23.084 23.084 0 0 1 491 5.9 A 13.392 13.392 0 0 1 497.32 15.608 Q 497.588 17.389 497.5 19.4 Q 497.4 22.4 495.7 25.3 A 15.009 15.009 0 0 1 493.117 28.532 A 19.968 19.968 0 0 1 490.7 30.5 Q 487.4 32.8 482.4 34 L 482.4 34.1 A 38.362 38.362 0 0 1 488.32 35.173 Q 494.263 36.778 497.7 40.25 A 17.603 17.603 0 0 1 501.361 45.506 A 15.86 15.86 0 0 1 502.7 52 A 21.912 21.912 0 0 1 502.128 57.131 A 16.391 16.391 0 0 1 499.6 62.8 A 18.889 18.889 0 0 1 492.716 68.72 A 23.324 23.324 0 0 1 491.05 69.5 A 28.973 28.973 0 0 1 483.472 71.503 A 37.127 37.127 0 0 1 478.7 71.8 Z M 465.9 38.9 L 465.9 57.3 Q 465.9 60 465.8 62.2 A 56.551 56.551 0 0 1 465.728 63.487 Q 465.643 64.719 465.518 65.579 A 15.361 15.361 0 0 1 465.5 65.7 A 58.667 58.667 0 0 0 468.134 65.794 A 66.398 66.398 0 0 0 469.05 65.8 Q 470.9 65.8 472.6 65.75 A 138.156 138.156 0 0 1 473.805 65.72 Q 474.277 65.71 474.701 65.705 A 69.538 69.538 0 0 1 475.5 65.7 Q 480.541 65.547 483.744 63.382 A 10.795 10.795 0 0 0 485.55 61.85 A 12.241 12.241 0 0 0 488.574 56.044 A 18.127 18.127 0 0 0 489 52 A 20.518 20.518 0 0 0 488.779 48.89 Q 488.529 47.258 487.993 45.932 A 9.482 9.482 0 0 0 486.95 44 Q 484.9 41.1 481.65 39.9 Q 478.4 38.7 474.7 38.7 L 470 38.7 Q 468 38.7 465.9 38.9 Z M 25.9 29.1 L 20.5 44.5 L 39.3 44.5 L 33.9 29.8 Q 32.7 26.4 31.65 22.95 Q 30.6 19.5 29.9 16.6 L 29.7 16.6 Q 29.1 18.6 28.25 21.8 A 67.341 67.341 0 0 1 27.382 24.772 Q 26.744 26.794 25.9 29.1 Z M 246.2 29.1 L 240.8 44.5 L 259.6 44.5 L 254.2 29.8 Q 253 26.4 251.95 22.95 Q 250.9 19.5 250.2 16.6 L 250 16.6 Q 249.4 18.6 248.55 21.8 A 67.341 67.341 0 0 1 247.682 24.772 Q 247.044 26.794 246.2 29.1 Z M 465.9 16.3 L 465.9 32.8 L 471.8 32.7 Q 475.183 32.628 477.53 31.597 A 9.068 9.068 0 0 0 479.2 30.65 Q 481.9 28.7 483.1 25.55 A 18.524 18.524 0 0 0 484.25 20.18 A 21.841 21.841 0 0 0 484.3 18.7 A 17.443 17.443 0 0 0 484.046 16.022 Q 483.795 14.621 483.3 13.491 A 8.083 8.083 0 0 0 482.35 11.85 A 10.37 10.37 0 0 0 479.593 9.282 A 9.666 9.666 0 0 0 477.8 8.4 A 14.496 14.496 0 0 0 472.726 7.491 A 15.251 15.251 0 0 0 472.2 7.5 Q 470.1 7.5 468.7 8.1 A 3.342 3.342 0 0 0 467.331 9.207 Q 466.995 9.658 466.738 10.254 A 6.927 6.927 0 0 0 466.6 10.6 Q 465.988 12.261 465.911 15.375 A 37.49 37.49 0 0 0 465.9 16.3 Z" vector-effect="non-scaling-stroke"/></g></svg>