 <svg  version="1.0" xmlns="http://www.w3.org/2000/svg"  width="504.000000pt" height="144.000000pt" viewBox="0 0 504.000000 144.000000"  preserveAspectRatio="xMidYMid meet">  <g transform="translate(0.000000,144.000000) scale(0.100000,-0.100000)" fill="#ffffff" stroke="none"> <path d="M1071 983 l-30 -28 -3 -242 c-2 -156 1 -244 7 -246 6 -2 33 -1 60 2 36 4 50 10 49 21 0 8 -4 45 -8 83 -6 66 -6 68 19 77 16 6 34 6 51 0 25 -10 25 -12 19 -76 -4 -36 -8 -73 -9 -82 -1 -14 9 -17 59 -17 42 0 60 4 59 13 -1 6 -2 114 -2 238 l-2 226 -29 29 c-28 28 -33 29 -120 29 -85 0 -93 -2 -120 -27z m158 -67 c8 -9 11 -45 9 -98 l-3 -83 -45 0 -45 0 -1 85 c-1 47 3 91 8 98 14 16 63 15 77 -2z"/> <path d="M1451 1001 l-44 -6 1 -260 1 -260 115 -3 116 -3 0 46 0 45 -60 0 -61 0 1 215 c1 202 -1 237 -18 233 -4 0 -27 -4 -51 -7z"/> <path d="M1704 974 l-36 -37 5 -231 5 -231 56 -3 57 -3 -1 222 c-1 230 0 239 40 239 41 0 43 -8 38 -239 l-4 -221 56 0 55 0 -4 224 -3 223 24 6 c13 4 34 4 47 0 l23 -6 -3 -223 -4 -224 59 0 59 0 -7 38 c-3 20 -6 128 -6 240 l0 204 -29 29 c-26 26 -37 29 -89 29 -45 0 -66 -5 -86 -21 -27 -22 -55 -19 -76 6 -9 10 -32 15 -76 15 -60 0 -66 -2 -100 -36z"/> <path d="M2272 994 c-13 -9 -27 -26 -32 -39 -5 -12 -10 -125 -11 -251 l-3 -229 57 -3 57 -3 -7 91 -6 90 47 0 c30 0 46 -4 47 -12 0 -7 0 -48 -1 -90 l-1 -78 59 0 59 0 -1 237 -1 237 -33 33 c-32 32 -34 33 -120 33 -64 0 -94 -4 -110 -16z m149 -154 c3 -47 4 -91 1 -98 -3 -9 -19 -12 -46 -10 l-41 3 -3 89 c-3 98 2 108 53 104 l30 -3 6 -85z"/> <path d="M2947 992 c-12 -14 -13 -34 -5 -122 9 -100 4 -344 -8 -375 -8 -20 25 -31 81 -27 l45 4 -7 104 -6 104 53 0 53 0 -6 -105 -6 -105 60 0 59 0 -2 263 -3 262 -55 0 -55 0 4 -112 3 -113 -52 0 -53 0 6 110 c5 81 3 111 -6 117 -24 15 -85 11 -100 -5z"/> <path d="M3327 993 c-4 -3 -7 -111 -7 -239 0 -232 0 -233 24 -261 24 -27 27 -28 126 -28 99 0 102 1 126 28 l24 29 -2 236 -3 237 -54 0 -55 0 0 -224 c-1 -202 -3 -225 -18 -235 -13 -8 -23 -8 -35 0 -16 10 -18 33 -20 225 -1 118 -2 220 -2 227 -1 13 -92 18 -104 5z"/> <path d="M3687 994 c-4 -4 -7 -124 -7 -266 l0 -258 128 0 c114 1 130 3 152 21 24 20 25 27 25 124 0 95 -2 104 -23 122 l-23 18 20 27 c17 21 21 40 21 95 0 62 -3 72 -26 94 -24 22 -35 24 -142 27 -65 2 -120 0 -125 -4z m183 -131 c8 -74 -1 -93 -45 -93 l-35 0 0 76 0 75 38 -3 c37 -3 37 -3 42 -55z m2 -170 c18 -22 17 -115 -2 -138 -8 -10 -25 -15 -44 -13 l-31 3 -3 69 c-2 38 -1 75 2 83 8 19 60 16 78 -4z"/> <path d="M2608 743 c-5 -6 -8 -27 -6 -45 l3 -33 135 0 135 0 3 34 c2 18 -1 38 -6 43 -15 15 -252 16 -264 1z"/> </g> </svg> 